<svg width="24" height="25" viewBox="0 0 24 25" fill="none" xmlns="http://www.w3.org/2000/svg">
<path d="M20 4H5.50001C5.20001 4 4.90001 4.1 4.70001 4.4L3.20001 6.4C2.70001 7.1 3.20001 8 4.00001 8H18.5C18.8 8 19.1 7.9 19.3 7.6L20.8 5.6C21.3 4.9 20.8 4 20 4Z" stroke="white" stroke-width="1.5" stroke-miterlimit="10"/>
<path d="M4.00001 10.5H18.5C18.8 10.5 19.1 10.6 19.3 10.9L20.8 12.9C21.3 13.6 20.8 14.5 20 14.5H5.50001C5.20001 14.5 4.90001 14.4 4.70001 14.1L3.20001 12.1C2.70001 11.4 3.20001 10.5 4.00001 10.5Z" stroke="white" stroke-width="1.5" stroke-miterlimit="10"/>
<path d="M20 17H5.50001C5.20001 17 4.90001 17.1 4.70001 17.4L3.20001 19.4C2.70001 20.1 3.20001 21 4.00001 21H18.5C18.8 21 19.1 20.9 19.3 20.6L20.8 18.6C21.3 17.9 20.8 17 20 17Z" stroke="white" stroke-width="1.5" stroke-miterlimit="10"/>
</svg>
