<svg width="68" height="40" viewBox="0 0 68 40" fill="none" xmlns="http://www.w3.org/2000/svg">
<path fill-rule="evenodd" clip-rule="evenodd" d="M66.8712 14.5151C66.6079 14.2835 66.1552 13.6229 66.0712 13.3649C65.9634 13.1646 65.6195 12.7293 65.2617 12.229C64.832 11.771 63.5073 10.0474 63.5852 8.87299C63.4906 8.5312 62.6055 5.99194 59.2419 3.61714L59.2468 3.61223C58.7439 3.30176 58.7654 2.78945 58.7906 2.59287C58.7955 2.57137 58.8001 2.54836 58.8038 2.52572C58.8038 2.51969 58.8076 2.50875 58.8076 2.50875L58.8023 2.50686C58.8132 2.42764 58.8238 2.34729 58.8238 2.26467C58.8238 1.45283 58.2874 0.794106 57.6275 0.794106C57.5198 0.794106 57.4215 0.816741 57.322 0.848052C57.1318 0.348948 56.7198 0 56.2384 0C55.768 0 55.368 0.335756 55.1714 0.819012C54.5533 1.85527 54.1069 2.14915 53.9344 2.22236C53.9201 2.22726 53.9024 2.23066 53.8881 2.23556C53.8414 2.28838 49.2597 2.16011 46.1556 1.24488C45.915 1.15133 45.6743 1.07588 45.4325 1.00873C45.4132 1.00269 45.3929 0.996655 45.3737 0.988356V0.994392C43.9692 0.61903 42.5487 0.707677 41.0745 1.36259C39.5212 2.0522 37.906 2.0439 36.2472 1.70664C33.9718 1.24375 31.6858 0.756728 29.3829 0.500213C24.0083 -0.0981036 18.9631 0.886517 14.8439 4.59484C12.2991 6.88436 9.10162 7.66151 6.83109 10.2332C4.9101 12.4126 4.62651 16.8238 4.02424 19.6878C3.66867 21.367 3.30105 23.0484 2.82683 24.6965C2.11908 27.1554 1.98725 29.843 0.10358 31.8544C-0.206409 32.9997 0.274957 34.8649 0.308484 35.003C1.2927 39.1659 2.19447 39.8235 6.43372 39.4406C6.85031 39.4032 7.32226 39.4108 7.65861 39.2139C7.95919 39.0388 8.3027 38.6046 8.29442 38.2926C8.26692 37.2453 7.38893 37.1054 6.58923 36.9459C5.58091 36.7467 5.40388 36.4456 5.96661 35.593C6.3606 34.9947 6.86458 34.4394 7.41454 33.9799C9.70166 32.0635 11.5555 29.8241 12.8991 27.1412C13.2261 26.4885 13.7112 26.0042 14.2713 25.6684C15.64 24.0383 16.8412 22.1924 17.387 20.2975C17.1738 21.1946 16.6408 23.0212 15.1741 25.2738C14.8724 26.1996 15.8901 27.4709 16.1357 27.9749C18.042 30.5489 19.8613 33.0712 21.0922 35.7471C21.2718 36.1334 21.7076 36.4752 22.1054 36.6755C24.1303 37.6925 26.2883 37.8917 28.4966 37.4911C28.8235 37.4311 29.2774 37.0761 29.3373 36.7871C29.4032 36.4706 29.1757 35.9357 28.9049 35.7414C28.4137 35.3913 27.8103 35.1767 27.2234 34.9929C25.438 34.4293 25.4858 34.9186 25.5913 32.6577C25.5962 32.568 25.6237 32.4816 25.6237 32.3925C25.6297 31.0084 26.4249 28.7487 26.22 27.0997C27.6701 27.8587 30.0043 28.6792 33.1201 28.497C33.2975 26.3286 33.7823 24.7442 34.18 23.7343C34.2052 23.7283 34.2316 23.7222 34.2565 23.7162C33.9894 24.5412 33.8146 25.4168 33.719 26.3249C33.6915 26.5169 33.67 26.7184 33.6508 26.9308C33.6485 26.987 33.6414 27.0424 33.6365 27.0975C33.6161 27.3842 33.609 27.6902 33.609 28.015C33.6052 28.1636 33.592 28.3111 33.592 28.4601C33.5992 28.4601 33.6063 28.459 33.6112 28.4579C33.6734 30.3672 34.131 32.8705 35.4411 36.0225C36.3104 38.1129 38.0013 39.4501 40.1509 39.8485C41.7603 40.1458 43.4738 39.9228 45.1376 39.8712C45.7267 39.8519 46.2464 39.6339 46.2464 38.8409C46.2464 38.0672 45.831 37.717 45.1662 37.5994C44.4524 37.4734 43.7326 37.3534 43.0094 37.3297C41.8358 37.2912 41.1483 36.6616 41.2109 35.5581C41.3785 32.6291 41.2768 29.602 42.023 26.8112C42.0938 26.5437 42.1846 26.2846 42.2686 26.022C42.6901 27.3125 43.3945 28.055 43.3945 28.055V28.0539C45.1523 30.2057 47.0179 32.2674 49.6444 33.3923C50.5555 33.782 50.8945 34.2954 50.7017 35.2299C50.6045 35.7142 50.4049 36.2217 50.4681 36.6894C50.5555 37.3537 50.6659 38.215 51.1066 38.5651C51.3989 38.8013 52.498 38.4968 52.8683 38.0939C55.4285 35.2838 56.3663 32.5182 54.5579 29.2557C53.5688 27.4747 52.217 25.8819 50.9126 24.2975C50.1186 23.3321 49.6993 22.3844 50.067 21.155C50.3016 20.3646 50.5303 19.5585 50.7638 18.7515L50.7661 18.7477C51.1122 17.5435 51.7864 16.6573 51.7864 16.6573C51.7864 16.6573 52.081 16.2484 53.026 15.1834H53.0282C53.258 15.7195 53.7887 16.7415 54.4569 16.6513C54.3861 16.583 54.1134 15.7828 54.1134 15.1856C54.2776 15.1894 54.4512 15.1939 54.6294 15.2C54.8663 15.747 55.6091 17.2221 56.6377 17.0696C56.5406 16.9915 56.1861 16.014 56.2257 15.2958C57.9489 15.4444 59.914 15.7719 61.4135 16.4724C61.6169 16.5539 62.6301 17.4714 63.3246 17.4439C64.061 17.5446 64.5352 17.811 64.8561 17.4032C64.8705 17.3602 65.2238 17.6514 65.4788 17.4284C65.7662 17.1934 66.2931 16.7543 66.542 16.2292C66.6272 16.2435 67.5108 15.8874 67.4999 15.5456C67.3861 15.2476 67.5756 15.2442 66.8713 14.5149L66.8712 14.5151Z" fill="white"/>
</svg>
